<mxfile host="app.diagrams.net" agent="Mozilla/5.0 (Windows NT 10.0; Win64; x64) AppleWebKit/537.36 (KHTML, like Gecko) Chrome/128.0.0.0 Safari/537.36 Edg/128.0.0.0" version="24.7.10">
  <diagram id="C5RBs43oDa-KdzZeNtuy" name="Page-1">
    <mxGraphModel dx="1426" dy="791" grid="1" gridSize="10" guides="1" tooltips="1" connect="1" arrows="1" fold="1" page="1" pageScale="1" pageWidth="827" pageHeight="1169" math="0" shadow="0">
      <root>
        <mxCell id="WIyWlLk6GJQsqaUBKTNV-0" />
        <mxCell id="WIyWlLk6GJQsqaUBKTNV-1" parent="WIyWlLk6GJQsqaUBKTNV-0" />
        <mxCell id="Yq8NOzJT2rGxfWTdpV8L-25" style="edgeStyle=orthogonalEdgeStyle;shape=connector;rounded=0;orthogonalLoop=1;jettySize=auto;html=1;exitX=1;exitY=0.5;exitDx=0;exitDy=0;entryX=0;entryY=0.5;entryDx=0;entryDy=0;strokeColor=default;align=center;verticalAlign=middle;fontFamily=Helvetica;fontSize=11;fontColor=default;labelBackgroundColor=default;endArrow=none;endFill=0;" edge="1" parent="WIyWlLk6GJQsqaUBKTNV-1" source="Yq8NOzJT2rGxfWTdpV8L-8" target="Yq8NOzJT2rGxfWTdpV8L-22">
          <mxGeometry relative="1" as="geometry">
            <Array as="points">
              <mxPoint x="260" y="260" />
              <mxPoint x="260" y="260" />
            </Array>
          </mxGeometry>
        </mxCell>
        <mxCell id="Yq8NOzJT2rGxfWTdpV8L-28" value="*" style="edgeLabel;html=1;align=center;verticalAlign=middle;resizable=0;points=[];fontFamily=Helvetica;fontSize=11;fontColor=default;labelBackgroundColor=default;" vertex="1" connectable="0" parent="Yq8NOzJT2rGxfWTdpV8L-25">
          <mxGeometry x="-0.5" y="-4" relative="1" as="geometry">
            <mxPoint as="offset" />
          </mxGeometry>
        </mxCell>
        <mxCell id="Yq8NOzJT2rGxfWTdpV8L-39" style="edgeStyle=orthogonalEdgeStyle;shape=connector;rounded=0;orthogonalLoop=1;jettySize=auto;html=1;exitX=0.5;exitY=0;exitDx=0;exitDy=0;entryX=0.5;entryY=1;entryDx=0;entryDy=0;strokeColor=default;align=center;verticalAlign=middle;fontFamily=Helvetica;fontSize=11;fontColor=default;labelBackgroundColor=default;endArrow=none;endFill=0;" edge="1" parent="WIyWlLk6GJQsqaUBKTNV-1" source="Yq8NOzJT2rGxfWTdpV8L-8" target="Yq8NOzJT2rGxfWTdpV8L-36">
          <mxGeometry relative="1" as="geometry" />
        </mxCell>
        <mxCell id="Yq8NOzJT2rGxfWTdpV8L-40" value="1" style="edgeLabel;html=1;align=center;verticalAlign=middle;resizable=0;points=[];fontFamily=Helvetica;fontSize=11;fontColor=default;labelBackgroundColor=default;" vertex="1" connectable="0" parent="Yq8NOzJT2rGxfWTdpV8L-39">
          <mxGeometry x="0.72" y="2" relative="1" as="geometry">
            <mxPoint as="offset" />
          </mxGeometry>
        </mxCell>
        <mxCell id="Yq8NOzJT2rGxfWTdpV8L-47" value="*" style="edgeLabel;html=1;align=center;verticalAlign=middle;resizable=0;points=[];fontFamily=Helvetica;fontSize=11;fontColor=default;labelBackgroundColor=default;" vertex="1" connectable="0" parent="Yq8NOzJT2rGxfWTdpV8L-39">
          <mxGeometry x="-0.7377" relative="1" as="geometry">
            <mxPoint as="offset" />
          </mxGeometry>
        </mxCell>
        <mxCell id="Yq8NOzJT2rGxfWTdpV8L-8" value="Студент" style="rounded=1;arcSize=10;whiteSpace=wrap;html=1;align=center;fontFamily=Helvetica;fontSize=11;fontColor=default;labelBackgroundColor=default;" vertex="1" parent="WIyWlLk6GJQsqaUBKTNV-1">
          <mxGeometry x="140" y="240" width="100" height="40" as="geometry" />
        </mxCell>
        <mxCell id="Yq8NOzJT2rGxfWTdpV8L-18" style="edgeStyle=orthogonalEdgeStyle;shape=connector;rounded=0;orthogonalLoop=1;jettySize=auto;html=1;exitX=0.5;exitY=1;exitDx=0;exitDy=0;entryX=0.5;entryY=0;entryDx=0;entryDy=0;strokeColor=default;align=center;verticalAlign=middle;fontFamily=Helvetica;fontSize=11;fontColor=default;labelBackgroundColor=default;endArrow=none;endFill=0;" edge="1" parent="WIyWlLk6GJQsqaUBKTNV-1" source="Yq8NOzJT2rGxfWTdpV8L-10" target="Yq8NOzJT2rGxfWTdpV8L-17">
          <mxGeometry relative="1" as="geometry" />
        </mxCell>
        <mxCell id="Yq8NOzJT2rGxfWTdpV8L-19" style="edgeStyle=orthogonalEdgeStyle;shape=connector;rounded=0;orthogonalLoop=1;jettySize=auto;html=1;exitX=0.5;exitY=0;exitDx=0;exitDy=0;entryX=0.5;entryY=1;entryDx=0;entryDy=0;strokeColor=default;align=center;verticalAlign=middle;fontFamily=Helvetica;fontSize=11;fontColor=default;labelBackgroundColor=default;endArrow=none;endFill=0;" edge="1" parent="WIyWlLk6GJQsqaUBKTNV-1" source="Yq8NOzJT2rGxfWTdpV8L-10" target="Yq8NOzJT2rGxfWTdpV8L-8">
          <mxGeometry relative="1" as="geometry" />
        </mxCell>
        <mxCell id="Yq8NOzJT2rGxfWTdpV8L-10" value="Обучается" style="shape=rhombus;perimeter=rhombusPerimeter;whiteSpace=wrap;html=1;align=center;fontFamily=Helvetica;fontSize=11;fontColor=default;labelBackgroundColor=default;" vertex="1" parent="WIyWlLk6GJQsqaUBKTNV-1">
          <mxGeometry x="130" y="339" width="120" height="60" as="geometry" />
        </mxCell>
        <mxCell id="Yq8NOzJT2rGxfWTdpV8L-15" style="edgeStyle=orthogonalEdgeStyle;shape=connector;rounded=0;orthogonalLoop=1;jettySize=auto;html=1;exitX=1;exitY=0.5;exitDx=0;exitDy=0;entryX=0;entryY=0.5;entryDx=0;entryDy=0;strokeColor=default;align=center;verticalAlign=middle;fontFamily=Helvetica;fontSize=11;fontColor=default;labelBackgroundColor=default;endArrow=none;endFill=0;" edge="1" parent="WIyWlLk6GJQsqaUBKTNV-1" source="Yq8NOzJT2rGxfWTdpV8L-12" target="Yq8NOzJT2rGxfWTdpV8L-8">
          <mxGeometry relative="1" as="geometry">
            <mxPoint x="99" y="200" as="sourcePoint" />
            <mxPoint x="129" y="260" as="targetPoint" />
          </mxGeometry>
        </mxCell>
        <mxCell id="Yq8NOzJT2rGxfWTdpV8L-12" value="№ паспорта" style="ellipse;whiteSpace=wrap;html=1;align=center;fontStyle=4;fontFamily=Helvetica;fontSize=11;fontColor=default;labelBackgroundColor=default;" vertex="1" parent="WIyWlLk6GJQsqaUBKTNV-1">
          <mxGeometry x="10" y="210" width="100" height="40" as="geometry" />
        </mxCell>
        <mxCell id="Yq8NOzJT2rGxfWTdpV8L-16" style="edgeStyle=orthogonalEdgeStyle;shape=connector;rounded=0;orthogonalLoop=1;jettySize=auto;html=1;exitX=1;exitY=0.5;exitDx=0;exitDy=0;strokeColor=default;align=center;verticalAlign=middle;fontFamily=Helvetica;fontSize=11;fontColor=default;labelBackgroundColor=default;endArrow=none;endFill=0;entryX=0;entryY=0.75;entryDx=0;entryDy=0;" edge="1" parent="WIyWlLk6GJQsqaUBKTNV-1" source="Yq8NOzJT2rGxfWTdpV8L-13" target="Yq8NOzJT2rGxfWTdpV8L-8">
          <mxGeometry relative="1" as="geometry" />
        </mxCell>
        <mxCell id="Yq8NOzJT2rGxfWTdpV8L-13" value="ФИО" style="ellipse;whiteSpace=wrap;html=1;align=center;fontFamily=Helvetica;fontSize=11;fontColor=default;labelBackgroundColor=default;" vertex="1" parent="WIyWlLk6GJQsqaUBKTNV-1">
          <mxGeometry x="10" y="284" width="90" height="40" as="geometry" />
        </mxCell>
        <mxCell id="Yq8NOzJT2rGxfWTdpV8L-14" value="Преподаватель" style="rounded=1;arcSize=10;whiteSpace=wrap;html=1;align=center;fontFamily=Helvetica;fontSize=11;fontColor=default;labelBackgroundColor=default;" vertex="1" parent="WIyWlLk6GJQsqaUBKTNV-1">
          <mxGeometry x="489" y="184" width="100" height="40" as="geometry" />
        </mxCell>
        <mxCell id="Yq8NOzJT2rGxfWTdpV8L-17" value="Группа" style="whiteSpace=wrap;html=1;align=center;fontFamily=Helvetica;fontSize=11;fontColor=default;labelBackgroundColor=default;" vertex="1" parent="WIyWlLk6GJQsqaUBKTNV-1">
          <mxGeometry x="140" y="457" width="100" height="40" as="geometry" />
        </mxCell>
        <mxCell id="Yq8NOzJT2rGxfWTdpV8L-51" style="edgeStyle=orthogonalEdgeStyle;shape=connector;rounded=0;orthogonalLoop=1;jettySize=auto;html=1;exitX=0;exitY=0.5;exitDx=0;exitDy=0;entryX=1;entryY=0.25;entryDx=0;entryDy=0;strokeColor=default;align=center;verticalAlign=middle;fontFamily=Helvetica;fontSize=11;fontColor=default;labelBackgroundColor=default;endArrow=none;endFill=0;" edge="1" parent="WIyWlLk6GJQsqaUBKTNV-1" source="Yq8NOzJT2rGxfWTdpV8L-20" target="Yq8NOzJT2rGxfWTdpV8L-14">
          <mxGeometry relative="1" as="geometry" />
        </mxCell>
        <mxCell id="Yq8NOzJT2rGxfWTdpV8L-20" value="№ паспорта" style="ellipse;whiteSpace=wrap;html=1;align=center;fontStyle=4;fontFamily=Helvetica;fontSize=11;fontColor=default;labelBackgroundColor=default;" vertex="1" parent="WIyWlLk6GJQsqaUBKTNV-1">
          <mxGeometry x="630" y="139" width="100" height="40" as="geometry" />
        </mxCell>
        <mxCell id="Yq8NOzJT2rGxfWTdpV8L-52" style="edgeStyle=orthogonalEdgeStyle;shape=connector;rounded=0;orthogonalLoop=1;jettySize=auto;html=1;exitX=0;exitY=0.5;exitDx=0;exitDy=0;entryX=1;entryY=0.75;entryDx=0;entryDy=0;strokeColor=default;align=center;verticalAlign=middle;fontFamily=Helvetica;fontSize=11;fontColor=default;labelBackgroundColor=default;endArrow=none;endFill=0;" edge="1" parent="WIyWlLk6GJQsqaUBKTNV-1" source="Yq8NOzJT2rGxfWTdpV8L-21" target="Yq8NOzJT2rGxfWTdpV8L-14">
          <mxGeometry relative="1" as="geometry" />
        </mxCell>
        <mxCell id="Yq8NOzJT2rGxfWTdpV8L-21" value="ФИО" style="ellipse;whiteSpace=wrap;html=1;align=center;fontFamily=Helvetica;fontSize=11;fontColor=default;labelBackgroundColor=default;" vertex="1" parent="WIyWlLk6GJQsqaUBKTNV-1">
          <mxGeometry x="630" y="213" width="90" height="40" as="geometry" />
        </mxCell>
        <mxCell id="Yq8NOzJT2rGxfWTdpV8L-26" style="edgeStyle=orthogonalEdgeStyle;shape=connector;rounded=0;orthogonalLoop=1;jettySize=auto;html=1;exitX=1;exitY=0.5;exitDx=0;exitDy=0;entryX=0;entryY=0.5;entryDx=0;entryDy=0;strokeColor=default;align=center;verticalAlign=middle;fontFamily=Helvetica;fontSize=11;fontColor=default;labelBackgroundColor=default;endArrow=none;endFill=0;" edge="1" parent="WIyWlLk6GJQsqaUBKTNV-1" source="Yq8NOzJT2rGxfWTdpV8L-22" target="Yq8NOzJT2rGxfWTdpV8L-14">
          <mxGeometry relative="1" as="geometry" />
        </mxCell>
        <mxCell id="Yq8NOzJT2rGxfWTdpV8L-29" value="*" style="edgeLabel;html=1;align=center;verticalAlign=middle;resizable=0;points=[];fontFamily=Helvetica;fontSize=11;fontColor=default;labelBackgroundColor=default;" vertex="1" connectable="0" parent="Yq8NOzJT2rGxfWTdpV8L-26">
          <mxGeometry x="0.56" y="-3" relative="1" as="geometry">
            <mxPoint as="offset" />
          </mxGeometry>
        </mxCell>
        <mxCell id="Yq8NOzJT2rGxfWTdpV8L-22" value="Ведомость" style="shape=rhombus;perimeter=rhombusPerimeter;whiteSpace=wrap;html=1;align=center;fontFamily=Helvetica;fontSize=11;fontColor=default;labelBackgroundColor=default;" vertex="1" parent="WIyWlLk6GJQsqaUBKTNV-1">
          <mxGeometry x="320" y="174" width="120" height="60" as="geometry" />
        </mxCell>
        <mxCell id="Yq8NOzJT2rGxfWTdpV8L-24" style="edgeStyle=orthogonalEdgeStyle;shape=connector;rounded=0;orthogonalLoop=1;jettySize=auto;html=1;exitX=0.5;exitY=0;exitDx=0;exitDy=0;entryX=0.5;entryY=1;entryDx=0;entryDy=0;strokeColor=default;align=center;verticalAlign=middle;fontFamily=Helvetica;fontSize=11;fontColor=default;labelBackgroundColor=default;endArrow=none;endFill=0;" edge="1" parent="WIyWlLk6GJQsqaUBKTNV-1" source="Yq8NOzJT2rGxfWTdpV8L-23" target="Yq8NOzJT2rGxfWTdpV8L-22">
          <mxGeometry relative="1" as="geometry" />
        </mxCell>
        <mxCell id="Yq8NOzJT2rGxfWTdpV8L-30" value="*" style="edgeLabel;html=1;align=center;verticalAlign=middle;resizable=0;points=[];fontFamily=Helvetica;fontSize=11;fontColor=default;labelBackgroundColor=default;" vertex="1" connectable="0" parent="Yq8NOzJT2rGxfWTdpV8L-24">
          <mxGeometry x="-0.5072" y="1" relative="1" as="geometry">
            <mxPoint as="offset" />
          </mxGeometry>
        </mxCell>
        <mxCell id="Yq8NOzJT2rGxfWTdpV8L-44" style="edgeStyle=orthogonalEdgeStyle;shape=connector;rounded=0;orthogonalLoop=1;jettySize=auto;html=1;exitX=1;exitY=0.5;exitDx=0;exitDy=0;entryX=0.5;entryY=1;entryDx=0;entryDy=0;strokeColor=default;align=center;verticalAlign=middle;fontFamily=Helvetica;fontSize=11;fontColor=default;labelBackgroundColor=default;endArrow=none;endFill=0;" edge="1" parent="WIyWlLk6GJQsqaUBKTNV-1" source="Yq8NOzJT2rGxfWTdpV8L-23" target="Yq8NOzJT2rGxfWTdpV8L-42">
          <mxGeometry relative="1" as="geometry" />
        </mxCell>
        <mxCell id="Yq8NOzJT2rGxfWTdpV8L-23" value="Дисциплина" style="whiteSpace=wrap;html=1;align=center;fontFamily=Helvetica;fontSize=11;fontColor=default;labelBackgroundColor=default;" vertex="1" parent="WIyWlLk6GJQsqaUBKTNV-1">
          <mxGeometry x="330" y="359" width="100" height="40" as="geometry" />
        </mxCell>
        <mxCell id="Yq8NOzJT2rGxfWTdpV8L-48" style="edgeStyle=orthogonalEdgeStyle;shape=connector;rounded=0;orthogonalLoop=1;jettySize=auto;html=1;exitX=1;exitY=0.5;exitDx=0;exitDy=0;entryX=0.5;entryY=0;entryDx=0;entryDy=0;strokeColor=default;align=center;verticalAlign=middle;fontFamily=Helvetica;fontSize=11;fontColor=default;labelBackgroundColor=default;endArrow=none;endFill=0;" edge="1" parent="WIyWlLk6GJQsqaUBKTNV-1" source="Yq8NOzJT2rGxfWTdpV8L-36" target="Yq8NOzJT2rGxfWTdpV8L-14">
          <mxGeometry relative="1" as="geometry" />
        </mxCell>
        <mxCell id="Yq8NOzJT2rGxfWTdpV8L-49" value="1" style="edgeLabel;html=1;align=center;verticalAlign=middle;resizable=0;points=[];fontFamily=Helvetica;fontSize=11;fontColor=default;labelBackgroundColor=default;" vertex="1" connectable="0" parent="Yq8NOzJT2rGxfWTdpV8L-48">
          <mxGeometry x="-0.9169" relative="1" as="geometry">
            <mxPoint as="offset" />
          </mxGeometry>
        </mxCell>
        <mxCell id="Yq8NOzJT2rGxfWTdpV8L-50" value="*" style="edgeLabel;html=1;align=center;verticalAlign=middle;resizable=0;points=[];fontFamily=Helvetica;fontSize=11;fontColor=default;labelBackgroundColor=default;" vertex="1" connectable="0" parent="Yq8NOzJT2rGxfWTdpV8L-48">
          <mxGeometry x="0.8857" y="-1" relative="1" as="geometry">
            <mxPoint as="offset" />
          </mxGeometry>
        </mxCell>
        <mxCell id="Yq8NOzJT2rGxfWTdpV8L-36" value="Директор" style="whiteSpace=wrap;html=1;align=center;fontFamily=Helvetica;fontSize=11;fontColor=default;labelBackgroundColor=default;" vertex="1" parent="WIyWlLk6GJQsqaUBKTNV-1">
          <mxGeometry x="140" y="78" width="100" height="40" as="geometry" />
        </mxCell>
        <mxCell id="Yq8NOzJT2rGxfWTdpV8L-46" style="edgeStyle=orthogonalEdgeStyle;shape=connector;rounded=0;orthogonalLoop=1;jettySize=auto;html=1;exitX=0.5;exitY=0;exitDx=0;exitDy=0;entryX=0.5;entryY=1;entryDx=0;entryDy=0;strokeColor=default;align=center;verticalAlign=middle;fontFamily=Helvetica;fontSize=11;fontColor=default;labelBackgroundColor=default;endArrow=none;endFill=0;" edge="1" parent="WIyWlLk6GJQsqaUBKTNV-1" source="Yq8NOzJT2rGxfWTdpV8L-42" target="Yq8NOzJT2rGxfWTdpV8L-14">
          <mxGeometry relative="1" as="geometry" />
        </mxCell>
        <mxCell id="Yq8NOzJT2rGxfWTdpV8L-42" value="Нагрузка" style="shape=rhombus;perimeter=rhombusPerimeter;whiteSpace=wrap;html=1;align=center;fontFamily=Helvetica;fontSize=11;fontColor=default;labelBackgroundColor=default;" vertex="1" parent="WIyWlLk6GJQsqaUBKTNV-1">
          <mxGeometry x="479" y="270" width="120" height="60" as="geometry" />
        </mxCell>
        <mxCell id="Yq8NOzJT2rGxfWTdpV8L-53" value="Вид занятий" style="whiteSpace=wrap;html=1;align=center;fontFamily=Helvetica;fontSize=11;fontColor=default;labelBackgroundColor=default;" vertex="1" parent="WIyWlLk6GJQsqaUBKTNV-1">
          <mxGeometry x="330" y="457" width="100" height="40" as="geometry" />
        </mxCell>
        <mxCell id="Yq8NOzJT2rGxfWTdpV8L-54" value="Вид" style="ellipse;whiteSpace=wrap;html=1;align=center;fontStyle=4;fontFamily=Helvetica;fontSize=11;fontColor=default;labelBackgroundColor=default;" vertex="1" parent="WIyWlLk6GJQsqaUBKTNV-1">
          <mxGeometry x="489" y="457" width="100" height="40" as="geometry" />
        </mxCell>
        <mxCell id="Yq8NOzJT2rGxfWTdpV8L-56" style="edgeStyle=orthogonalEdgeStyle;shape=connector;rounded=0;orthogonalLoop=1;jettySize=auto;html=1;exitX=0.5;exitY=0;exitDx=0;exitDy=0;entryX=0.75;entryY=1;entryDx=0;entryDy=0;strokeColor=default;align=center;verticalAlign=middle;fontFamily=Helvetica;fontSize=11;fontColor=default;labelBackgroundColor=default;endArrow=none;endFill=0;" edge="1" parent="WIyWlLk6GJQsqaUBKTNV-1" source="Yq8NOzJT2rGxfWTdpV8L-55" target="Yq8NOzJT2rGxfWTdpV8L-14">
          <mxGeometry relative="1" as="geometry" />
        </mxCell>
        <mxCell id="Yq8NOzJT2rGxfWTdpV8L-57" value="1" style="edgeLabel;html=1;align=center;verticalAlign=middle;resizable=0;points=[];fontFamily=Helvetica;fontSize=11;fontColor=default;labelBackgroundColor=default;" vertex="1" connectable="0" parent="Yq8NOzJT2rGxfWTdpV8L-56">
          <mxGeometry x="-0.8884" y="-2" relative="1" as="geometry">
            <mxPoint as="offset" />
          </mxGeometry>
        </mxCell>
        <mxCell id="Yq8NOzJT2rGxfWTdpV8L-58" value="*" style="edgeLabel;html=1;align=center;verticalAlign=middle;resizable=0;points=[];fontFamily=Helvetica;fontSize=11;fontColor=default;labelBackgroundColor=default;" vertex="1" connectable="0" parent="Yq8NOzJT2rGxfWTdpV8L-56">
          <mxGeometry x="0.8566" relative="1" as="geometry">
            <mxPoint as="offset" />
          </mxGeometry>
        </mxCell>
        <mxCell id="Yq8NOzJT2rGxfWTdpV8L-55" value="Должость" style="whiteSpace=wrap;html=1;align=center;fontFamily=Helvetica;fontSize=11;fontColor=default;labelBackgroundColor=default;" vertex="1" parent="WIyWlLk6GJQsqaUBKTNV-1">
          <mxGeometry x="670" y="319" width="100" height="40" as="geometry" />
        </mxCell>
      </root>
    </mxGraphModel>
  </diagram>
</mxfile>
